<?xml version="1.0" encoding="UTF-8" standalone="no"?>
<svg
   xmlns:dc="http://purl.org/dc/elements/1.1/"
   xmlns:cc="http://creativecommons.org/ns#"
   xmlns:rdf="http://www.w3.org/1999/02/22-rdf-syntax-ns#"
   xmlns:svg="http://www.w3.org/2000/svg"
   xmlns="http://www.w3.org/2000/svg"
   xmlns:sodipodi="http://sodipodi.sourceforge.net/DTD/sodipodi-0.dtd"
   xmlns:inkscape="http://www.inkscape.org/namespaces/inkscape"
   width="312mm"
   height="52mm"
   viewBox="0 0 312 52"
   version="1.1"
   id="svg1439"
   sodipodi:docname="explosion.svg"
   inkscape:version="1.0.2 (e86c870879, 2021-01-15, custom)"
   inkscape:export-filename="C:\Users\PC-AUREL\Documents\OTHER\diverese Programmfiles\Solar2D\pipe_game\inkscape\explosion.png"
   inkscape:export-xdpi="50.799999"
   inkscape:export-ydpi="50.799999">
  <defs
     id="defs1433" />
  <sodipodi:namedview
     id="base"
     pagecolor="#ffffff"
     bordercolor="#666666"
     borderopacity="1.0"
     inkscape:pageopacity="0.0"
     inkscape:pageshadow="2"
     inkscape:zoom="0.35"
     inkscape:cx="763.24549"
     inkscape:cy="1.1496555"
     inkscape:document-units="mm"
     inkscape:current-layer="layer1"
     inkscape:document-rotation="0"
     showgrid="false"
     inkscape:window-width="1267"
     inkscape:window-height="680"
     inkscape:window-x="1"
     inkscape:window-y="0"
     inkscape:window-maximized="0"
     showguides="true"
     inkscape:snap-nodes="true"
     inkscape:snap-others="true"
     inkscape:snap-global="false" />
  <metadata
     id="metadata1436">
    <rdf:RDF>
      <cc:Work
         rdf:about="">
        <dc:format>image/svg+xml</dc:format>
        <dc:type
           rdf:resource="http://purl.org/dc/dcmitype/StillImage" />
        <dc:title />
      </cc:Work>
    </rdf:RDF>
  </metadata>
  <g
     inkscape:label="Layer 1"
     inkscape:groupmode="layer"
     id="layer1">
    <path
       style="fill:#ffd940;fill-opacity:1;stroke:#000000;stroke-width:1;stroke-linecap:butt;stroke-linejoin:miter;stroke-miterlimit:4;stroke-dasharray:none;stroke-opacity:1"
       d="m 113.95982,24.190476 -5.29167,15.874999 14.17411,-0.944941 2.83482,10.583334 7.74851,-11.717261 10.20536,7.748511 -1.5119,-7.748511 12.09523,0.755952 -9.82738,-13.796131 6.23661,-10.772321 1.70089,-8.6934522 -10.77232,3.5907736 -5.66964,-6.4255951 -6.4256,5.2916666 -15.30803,-5.1026784 -0.56697,11.1502975 -6.2366,6.236607 z"
       id="path2098" />
    <path
       style="fill:#ffd940;fill-opacity:1;stroke:#000000;stroke-width:1;stroke-linecap:butt;stroke-linejoin:miter;stroke-miterlimit:4;stroke-dasharray:none;stroke-opacity:1"
       d="m 166.6875,27.970239 -4.53572,-7.559525 11.71727,-4.724702 -2.26786,-9.638393 6.42559,4.724702 10.77233,-7.1815471 -1.7009,12.4732141 13.04018,-2.456845 -7.37053,6.614583 10.77232,4.535714 -9.6384,6.80357 3.77977,11.717264 -11.33929,-5.480656 -9.26042,8.504465 -0.18898,-8.126489 -13.04018,1.889881 z"
       id="path2102" />
    <path
       style="fill:#ffd940;fill-opacity:1;stroke:#000000;stroke-width:1;stroke-linecap:butt;stroke-linejoin:miter;stroke-miterlimit:4;stroke-dasharray:none;stroke-opacity:1"
       d="m 226.21875,24.75744 -3.2128,-12.284226 10.20536,7.559524 6.80357,-5.102679 -4.34673,8.882441 10.39434,3.212797 -12.47321,3.02381 -1.70089,8.693452 -3.02381,-6.992559 -12.6622,1.700892 z"
       id="path2104"
       sodipodi:nodetypes="ccccccccccc" />
    <path
       style="fill:#ffd940;fill-opacity:1;stroke:#000000;stroke-width:1;stroke-linecap:butt;stroke-linejoin:miter;stroke-miterlimit:4;stroke-dasharray:none;stroke-opacity:1"
       d="m 23.252448,25.52424 -6.815372,-8.552625 9.755337,5.078121 6.280833,-7.082643 -0.801806,10.022608 10.557144,5.479025 -10.289876,-0.267269 1.336347,11.091685 -6.013563,-7.884451 -6.548104,6.013564 2.271791,-8.552625 -8.953529,-2.405425 z"
       id="path2080" />
    <path
       style="fill:#ffd940;fill-opacity:1;stroke:#000000;stroke-width:1;stroke-linecap:butt;stroke-linejoin:miter;stroke-miterlimit:4;stroke-dasharray:none;stroke-opacity:1"
       d="m 69.358631,25.513393 -9.638393,8.504464 11.90625,2.078868 3.212796,13.04018 L 81.831843,36.66369 96.950891,48.380951 97.895832,29.860118 93.171131,17.008928 99.218749,7.3705357 89.013391,14.363095 82.965773,3.5907739 79.18601,16.630952 62.366072,8.1264881 Z"
       id="path2092" />
    <path
       style="fill:#ff9b1d;fill-opacity:1;stroke:#000000;stroke-width:1;stroke-linecap:butt;stroke-linejoin:miter;stroke-miterlimit:4;stroke-dasharray:none;stroke-opacity:1"
       d="m 75.973214,27.59226 -1.889882,-6.425594 5.291667,3.401786 3.96875,-7.748512 0.188989,7.559524 7.748511,-1.322917 -4.157739,6.803571 6.236607,6.992559 -11.339285,-6.80357 -4.91369,6.80357 V 31.183035 L 69.736607,31.75 Z"
       id="path2082" />
    <path
       style="fill:#ff9b1d;fill-opacity:1;stroke:#000000;stroke-width:1;stroke-linecap:butt;stroke-linejoin:miter;stroke-miterlimit:4;stroke-dasharray:none;stroke-opacity:1"
       d="m 122.2753,23.8125 -8.12649,11.528274 14.36309,-3.023809 1.88988,4.91369 2.07887,-8.315478 12.47322,3.96875 -7.74851,-10.205356 8.69345,-10.583333 -13.41816,3.212798 -0.94494,-7.5595243 -2.64583,7.9375003 -12.47321,-6.9925597 z"
       id="path2096" />
    <path
       style="fill:#ff4c4c;fill-opacity:1;stroke:#000000;stroke-width:1;stroke-linecap:butt;stroke-linejoin:miter;stroke-miterlimit:4;stroke-dasharray:none;stroke-opacity:1"
       d="m 130.02381,21.544643 -3.2128,-3.02381 1.51191,5.102679 -2.64584,4.346727 5.66964,-3.968751 3.77977,1.889881 -2.26786,-3.401786 0.94494,-4.346726 z"
       id="path2094" />
    <path
       style="fill:#ff9b1d;fill-opacity:1;stroke:#000000;stroke-width:1;stroke-linecap:butt;stroke-linejoin:miter;stroke-miterlimit:4;stroke-dasharray:none;stroke-opacity:1"
       d="m 176.32589,27.025298 -4.34673,-4.724703 6.61459,-0.566964 3.77976,-10.016369 1.70089,12.095238 12.28423,-0.188988 -11.52827,5.291665 1.70089,5.858632 -5.85863,-5.102678 -5.48066,4.535713 z"
       id="path2100" />
  </g>
</svg>
