<?xml version="1.0" encoding="UTF-8" standalone="no"?>
<svg
   xmlns:dc="http://purl.org/dc/elements/1.1/"
   xmlns:cc="http://creativecommons.org/ns#"
   xmlns:rdf="http://www.w3.org/1999/02/22-rdf-syntax-ns#"
   xmlns:svg="http://www.w3.org/2000/svg"
   xmlns="http://www.w3.org/2000/svg"
   xmlns:sodipodi="http://sodipodi.sourceforge.net/DTD/sodipodi-0.dtd"
   xmlns:inkscape="http://www.inkscape.org/namespaces/inkscape"
   width="398.69385mm"
   height="102mm"
   viewBox="0 0 398.69385 102"
   version="1.1"
   id="svg3843"
   inkscape:version="1.0.2 (e86c870879, 2021-01-15, custom)"
   sodipodi:docname="level_buttons.svg"
   inkscape:export-filename="C:\Users\PC-AUREL\Documents\OTHER\diverese Programmfiles\Solar2D\pipe_game\inkscape\level_buttons.png"
   inkscape:export-xdpi="50.799999"
   inkscape:export-ydpi="50.799999">
  <defs
     id="defs3837" />
  <sodipodi:namedview
     id="base"
     pagecolor="#ffffff"
     bordercolor="#666666"
     borderopacity="1.0"
     inkscape:pageopacity="0.0"
     inkscape:pageshadow="2"
     inkscape:zoom="0.7"
     inkscape:cx="908.21477"
     inkscape:cy="24.862637"
     inkscape:document-units="mm"
     inkscape:current-layer="layer1"
     inkscape:document-rotation="0"
     showgrid="false"
     inkscape:window-width="1920"
     inkscape:window-height="1018"
     inkscape:window-x="3834"
     inkscape:window-y="-6"
     inkscape:window-maximized="1"
     inkscape:snap-bbox="true" />
  <metadata
     id="metadata3840">
    <rdf:RDF>
      <cc:Work
         rdf:about="">
        <dc:format>image/svg+xml</dc:format>
        <dc:type
           rdf:resource="http://purl.org/dc/dcmitype/StillImage" />
        <dc:title></dc:title>
      </cc:Work>
    </rdf:RDF>
  </metadata>
  <g
     inkscape:label="Layer 1"
     inkscape:groupmode="layer"
     id="layer1"
     transform="translate(199.60381,-58.700708)">
    <path
       style="display:inline;fill:#f6f7b0;fill-opacity:1;fill-rule:nonzero;stroke:none;stroke-width:0.0357982;stroke-linejoin:round;stroke-miterlimit:4;stroke-dasharray:none"
       d="m 181.54681,59.742501 c 4.28762,0.358107 8.67982,1.920509 11.60752,5.222091 2.71722,2.961311 3.73357,7.135746 3.58566,11.087948 0.0573,4.202706 -1.4648,8.557803 -4.6775,11.346653 -3.02761,2.655129 -7.04975,3.934489 -11.01091,4.155151 0,-10.6224 0,-21.244799 0,-31.867189 0.16507,0.01842 0.33014,0.03694 0.49523,0.05535 z"
       id="path5052-8-48" />
    <path
       style="display:inline;fill:none;stroke:#000000;stroke-width:2.00471;stroke-linecap:butt;stroke-linejoin:miter;stroke-miterlimit:4;stroke-dasharray:none;stroke-opacity:1"
       d="m 181.54681,59.742511 c 0,0 15.84703,0 15.84703,15.9779 0,15.977899 -15.84703,15.977899 -15.84703,15.977899 v 0"
       id="path5048-6-2"
       sodipodi:nodetypes="cscc" />
    <path
       style="display:inline;fill:#f6f7b0;fill-opacity:1;fill-rule:nonzero;stroke:none;stroke-width:0.0357982;stroke-linejoin:round;stroke-miterlimit:4;stroke-dasharray:none"
       d="m -79.36844,59.703278 c -4.287627,0.358107 -8.679829,1.920509 -11.607524,5.222092 -2.717217,2.961311 -3.733575,7.135745 -3.585665,11.087947 -0.0573,4.202706 1.464806,8.557804 4.677508,11.346654 3.02761,2.655129 7.049745,3.934488 11.010907,4.15515 0,-10.622399 0,-21.244799 0,-31.867188 -0.165079,0.01842 -0.330148,0.03694 -0.495226,0.05535 z"
       id="path5052-8-3" />
    <path
       style="display:inline;fill:none;stroke:#000000;stroke-width:2.00471;stroke-linecap:butt;stroke-linejoin:miter;stroke-miterlimit:4;stroke-dasharray:none;stroke-opacity:1"
       d="m -79.36844,59.703288 c 0,0 -15.847035,0 -15.847035,15.977901 0,15.977899 15.847035,15.977899 15.847035,15.977899 v 0"
       id="path5048-6-8"
       sodipodi:nodetypes="cscc" />
    <rect
       style="display:inline;fill:#f6f7b0;fill-opacity:1;stroke:none;stroke-width:2.00471;stroke-linejoin:round;stroke-miterlimit:4;stroke-dasharray:none"
       id="rect1724-5-3"
       width="52.823479"
       height="31.955799"
       x="-27.10586"
       y="59.741463" />
    <path
       style="display:inline;fill:none;stroke:#000000;stroke-width:2.00471;stroke-linecap:butt;stroke-linejoin:miter;stroke-miterlimit:4;stroke-dasharray:none;stroke-opacity:1"
       d="m -27.105894,59.741776 c 52.823487,0 52.823487,0 52.823487,0"
       id="path1716-48-8" />
    <path
       style="display:inline;fill:none;stroke:#000000;stroke-width:2.00471;stroke-linecap:butt;stroke-linejoin:miter;stroke-miterlimit:4;stroke-dasharray:none;stroke-opacity:1"
       d="M -27.105894,91.697666 H 25.717593"
       id="path1720-4-1" />
    <rect
       style="display:inline;fill:#f6f7b0;fill-opacity:1;stroke:none;stroke-width:2.00471;stroke-linejoin:round;stroke-miterlimit:4;stroke-dasharray:none"
       id="rect1724-5-6"
       width="52.823479"
       height="31.955799"
       x="25.717585"
       y="59.741772" />
    <path
       style="display:inline;fill:none;stroke:#000000;stroke-width:2.00471;stroke-linecap:butt;stroke-linejoin:miter;stroke-miterlimit:4;stroke-dasharray:none;stroke-opacity:1"
       d="m 25.717563,59.742098 c 52.823487,0 52.823487,0 52.823487,0"
       id="path1716-48-2" />
    <path
       style="display:inline;fill:none;stroke:#000000;stroke-width:2.00471;stroke-linecap:butt;stroke-linejoin:miter;stroke-miterlimit:4;stroke-dasharray:none;stroke-opacity:1"
       d="M 25.717563,91.697988 H 78.54105"
       id="path1720-4-8" />
    <rect
       style="display:inline;fill:#f6f7b0;fill-opacity:1;stroke:none;stroke-width:2.00471;stroke-linejoin:round;stroke-miterlimit:4;stroke-dasharray:none"
       id="rect1724-5-36"
       width="52.823479"
       height="31.955799"
       x="76.428085"
       y="59.742508" />
    <path
       style="display:inline;fill:none;stroke:#000000;stroke-width:2.00471;stroke-linecap:butt;stroke-linejoin:miter;stroke-miterlimit:4;stroke-dasharray:none;stroke-opacity:1"
       d="m 76.428097,59.74242 c 52.823483,0 52.823483,0 52.823483,0"
       id="path1716-48-81" />
    <path
       style="display:inline;fill:none;stroke:#000000;stroke-width:2.00471;stroke-linecap:butt;stroke-linejoin:miter;stroke-miterlimit:4;stroke-dasharray:none;stroke-opacity:1"
       d="M 76.428097,91.69831 H 129.25158"
       id="path1720-4-3" />
    <rect
       style="display:inline;fill:#f6f7b0;fill-opacity:1;stroke:none;stroke-width:2.00471;stroke-linejoin:round;stroke-miterlimit:4;stroke-dasharray:none"
       id="rect1724-5-5"
       width="52.823479"
       height="31.955799"
       x="-79.929382"
       y="59.741772" />
    <path
       style="display:inline;fill:none;stroke:#000000;stroke-width:2.00471;stroke-linecap:butt;stroke-linejoin:miter;stroke-miterlimit:4;stroke-dasharray:none;stroke-opacity:1"
       d="m -79.929401,59.742098 c 52.823487,0 52.823487,0 52.823487,0"
       id="path1716-48-1" />
    <path
       style="display:inline;fill:none;stroke:#000000;stroke-width:2.00471;stroke-linecap:butt;stroke-linejoin:miter;stroke-miterlimit:4;stroke-dasharray:none;stroke-opacity:1"
       d="m -79.929401,91.697988 h 52.823487"
       id="path1720-4-6" />
    <path
       style="display:inline;fill:#f6f7b0;fill-opacity:1;fill-rule:nonzero;stroke:none;stroke-width:0.0357982;stroke-linejoin:round;stroke-miterlimit:4;stroke-dasharray:none"
       d="m -182.75441,59.732165 c -4.28763,0.358106 -8.67983,1.920509 -11.60753,5.22209 -2.71722,2.961312 -3.73357,7.135746 -3.58566,11.087948 -0.0573,4.202706 1.46481,8.557803 4.6775,11.346653 3.02761,2.65513 7.04975,3.93449 11.01091,4.15515 0,-10.622399 0,-21.244798 0,-31.867188 -0.16506,0.01842 -0.33014,0.03694 -0.49522,0.05535 z"
       id="path5052-1-98" />
    <path
       style="display:inline;fill:none;stroke:#000000;stroke-width:2.00471;stroke-linecap:butt;stroke-linejoin:miter;stroke-miterlimit:4;stroke-dasharray:none;stroke-opacity:1"
       d="m -182.75443,59.732195 c 0,0 -15.84703,0 -15.84703,15.977899 0,15.97794 15.84703,15.97794 15.84703,15.97794 v 0"
       id="path5048-7-9-83"
       sodipodi:nodetypes="cscc" />
    <path
       style="display:inline;fill:#f6f7b0;fill-opacity:1;fill-rule:nonzero;stroke:none;stroke-width:0.0357982;stroke-linejoin:round;stroke-miterlimit:4;stroke-dasharray:none"
       d="m -130.98744,59.732165 c 4.28764,0.358106 8.67983,1.920509 11.60753,5.22209 2.71722,2.961312 3.73358,7.135746 3.58567,11.087948 0.0573,4.202706 -1.46482,8.557803 -4.67751,11.346653 -3.02761,2.65513 -7.04975,3.93449 -11.01091,4.15515 0,-10.622399 0,-21.244798 0,-31.867188 0.16507,0.01842 0.33015,0.03694 0.49522,0.05535 z"
       id="path5052-1-98-6" />
    <path
       style="display:inline;fill:none;stroke:#000000;stroke-width:2.00471;stroke-linecap:butt;stroke-linejoin:miter;stroke-miterlimit:4;stroke-dasharray:none;stroke-opacity:1"
       d="m -130.98742,59.732195 c 0,0 15.84703,0 15.84703,15.977899 0,15.97794 -15.84703,15.97794 -15.84703,15.97794 v 0"
       id="path5048-7-9-83-9"
       sodipodi:nodetypes="cscc" />
    <rect
       style="fill:#f6f7b0;fill-opacity:1;stroke:none;stroke-width:2.00471;stroke-linejoin:round;stroke-miterlimit:4;stroke-dasharray:none"
       id="rect1724-1-9-7"
       width="52.823479"
       height="31.955799"
       x="-183.28265"
       y="59.73225" />
    <path
       style="display:inline;fill:none;stroke:#000000;stroke-width:2.00471;stroke-linecap:butt;stroke-linejoin:miter;stroke-miterlimit:4;stroke-dasharray:none;stroke-opacity:1"
       d="m -183.28267,59.733483 c 52.82348,0 52.82348,0 52.82348,0"
       id="path1716-0-8-9" />
    <path
       style="display:inline;fill:none;stroke:#000000;stroke-width:2.00471;stroke-linecap:butt;stroke-linejoin:miter;stroke-miterlimit:4;stroke-dasharray:none;stroke-opacity:1"
       d="m -183.28267,91.689221 h 52.82348"
       id="path1720-2-4-1" />
    <rect
       style="display:inline;fill:#f6f7b0;fill-opacity:1;stroke:none;stroke-width:2.00471;stroke-linejoin:round;stroke-miterlimit:4;stroke-dasharray:none"
       id="rect1724-5-36-6"
       width="52.823479"
       height="31.955799"
       x="128.7233"
       y="59.742584" />
    <path
       style="display:inline;fill:none;stroke:#000000;stroke-width:2.00471;stroke-linecap:butt;stroke-linejoin:miter;stroke-miterlimit:4;stroke-dasharray:none;stroke-opacity:1"
       d="m 128.72332,59.742511 c 52.82349,0 52.82349,0 52.82349,0"
       id="path1716-48-81-0" />
    <path
       style="display:inline;fill:none;stroke:#000000;stroke-width:2.00471;stroke-linecap:butt;stroke-linejoin:miter;stroke-miterlimit:4;stroke-dasharray:none;stroke-opacity:1"
       d="m 128.72332,91.698401 h 52.82349"
       id="path1720-4-3-1" />
    <text
       xml:space="preserve"
       style="font-style:normal;font-weight:normal;font-size:30.0706px;line-height:1.25;font-family:sans-serif;letter-spacing:26.5205px;fill:#000000;fill-opacity:1;stroke:#000000;stroke-width:3.00706;stroke-miterlimit:4;stroke-dasharray:none;stroke-opacity:1"
       x="-48.750061"
       y="86.332886"
       id="text5545"
       transform="scale(0.99589675,1.0041202)"><tspan
         sodipodi:role="line"
         id="tspan5543"
         x="-48.750061"
         y="86.332886"
         style="font-size:30.0706px;stroke:#000000;stroke-width:3.00706;stroke-miterlimit:4;stroke-dasharray:none;stroke-opacity:1"><tspan
   style="letter-spacing:10.6082px;stroke-width:3.00706"
   id="tspan905">WORL</tspan>D1</tspan></text>
    <path
       style="fill:none;stroke:#000000;stroke-width:3.00706;stroke-linecap:butt;stroke-linejoin:miter;stroke-miterlimit:4;stroke-dasharray:none;stroke-opacity:1"
       d="m -139.68667,73.777134 -31.74908,2.91e-4 8.95382,-9.146356"
       id="path915"
       sodipodi:nodetypes="ccc" />
    <path
       style="fill:none;stroke:#000000;stroke-width:3.00557;stroke-linecap:butt;stroke-linejoin:miter;stroke-miterlimit:4;stroke-dasharray:none;stroke-opacity:1"
       d="m -139.68666,76.77499 h -31.75436 l 8.95531,9.158985"
       id="path915-2"
       sodipodi:nodetypes="ccc" />
    <path
       style="display:inline;fill:#71bee7;fill-opacity:1;fill-rule:nonzero;stroke:none;stroke-width:0.0357982;stroke-linejoin:round;stroke-miterlimit:4;stroke-dasharray:none"
       d="m 181.5468,93.742278 c 4.28762,0.358107 8.67982,1.920509 11.60752,5.222091 2.71722,2.961311 3.73357,7.135741 3.58566,11.087951 0.0573,4.2027 -1.4648,8.5578 -4.6775,11.34665 -3.02761,2.65513 -7.04975,3.93449 -11.01091,4.15515 0,-10.6224 0,-21.2448 0,-31.867188 0.16507,0.01842 0.33014,0.03694 0.49523,0.05535 z"
       id="path5052-8-48-5" />
    <path
       style="display:inline;fill:none;stroke:#000000;stroke-width:2.00471;stroke-linecap:butt;stroke-linejoin:miter;stroke-miterlimit:4;stroke-dasharray:none;stroke-opacity:1"
       d="m 181.5468,93.742288 c 0,0 15.84703,0 15.84703,15.977902 0,15.9779 -15.84703,15.9779 -15.84703,15.9779 v 0"
       id="path5048-6-2-8"
       sodipodi:nodetypes="cscc" />
    <path
       style="display:inline;fill:#71bee7;fill-opacity:1;fill-rule:nonzero;stroke:none;stroke-width:0.0357982;stroke-linejoin:round;stroke-miterlimit:4;stroke-dasharray:none"
       d="m -79.368435,93.703055 c -4.28763,0.358107 -8.67983,1.920509 -11.60752,5.222092 -2.71722,2.961313 -3.73358,7.135743 -3.58567,11.087943 -0.0573,4.20271 1.46481,8.55781 4.67751,11.34666 3.02761,2.65513 7.04974,3.93449 11.01091,4.15515 0,-10.6224 0,-21.2448 0,-31.86719 -0.16508,0.01842 -0.33015,0.03694 -0.49523,0.05535 z"
       id="path5052-8-3-0" />
    <path
       style="display:inline;fill:none;stroke:#000000;stroke-width:2.00471;stroke-linecap:butt;stroke-linejoin:miter;stroke-miterlimit:4;stroke-dasharray:none;stroke-opacity:1"
       d="m -79.368435,93.703065 c 0,0 -15.84704,0 -15.84704,15.977905 0,15.9779 15.84704,15.9779 15.84704,15.9779 v 0"
       id="path5048-6-8-1"
       sodipodi:nodetypes="cscc" />
    <rect
       style="display:inline;fill:#71bee7;fill-opacity:1;stroke:none;stroke-width:2.00471;stroke-linejoin:round;stroke-miterlimit:4;stroke-dasharray:none"
       id="rect1724-5-3-4"
       width="52.823479"
       height="31.955799"
       x="-27.105848"
       y="93.741241" />
    <path
       style="display:inline;fill:none;stroke:#000000;stroke-width:2.00471;stroke-linecap:butt;stroke-linejoin:miter;stroke-miterlimit:4;stroke-dasharray:none;stroke-opacity:1"
       d="m -27.105885,93.741553 c 52.82347,0 52.82347,0 52.82347,0"
       id="path1716-48-8-1" />
    <path
       style="display:inline;fill:none;stroke:#000000;stroke-width:2.00471;stroke-linecap:butt;stroke-linejoin:miter;stroke-miterlimit:4;stroke-dasharray:none;stroke-opacity:1"
       d="m -27.105885,125.69744 h 52.82347"
       id="path1720-4-1-0" />
    <rect
       style="display:inline;fill:#71bee7;fill-opacity:1;stroke:none;stroke-width:2.00471;stroke-linejoin:round;stroke-miterlimit:4;stroke-dasharray:none"
       id="rect1724-5-6-6"
       width="52.823479"
       height="31.955799"
       x="25.717592"
       y="93.741547" />
    <path
       style="display:inline;fill:none;stroke:#000000;stroke-width:2.00471;stroke-linecap:butt;stroke-linejoin:miter;stroke-miterlimit:4;stroke-dasharray:none;stroke-opacity:1"
       d="m 25.717555,93.741875 c 52.82349,0 52.82349,0 52.82349,0"
       id="path1716-48-2-5" />
    <path
       style="display:inline;fill:none;stroke:#000000;stroke-width:2.00471;stroke-linecap:butt;stroke-linejoin:miter;stroke-miterlimit:4;stroke-dasharray:none;stroke-opacity:1"
       d="m 25.717555,125.69776 h 52.82349"
       id="path1720-4-8-7" />
    <rect
       style="display:inline;fill:#71bee7;fill-opacity:1;stroke:none;stroke-width:2.00471;stroke-linejoin:round;stroke-miterlimit:4;stroke-dasharray:none"
       id="rect1724-5-36-7"
       width="52.823479"
       height="31.955799"
       x="76.428085"
       y="93.742287" />
    <path
       style="display:inline;fill:none;stroke:#000000;stroke-width:2.00471;stroke-linecap:butt;stroke-linejoin:miter;stroke-miterlimit:4;stroke-dasharray:none;stroke-opacity:1"
       d="m 76.428095,93.742197 c 52.823475,0 52.823475,0 52.823475,0"
       id="path1716-48-81-1" />
    <path
       style="display:inline;fill:none;stroke:#000000;stroke-width:2.00471;stroke-linecap:butt;stroke-linejoin:miter;stroke-miterlimit:4;stroke-dasharray:none;stroke-opacity:1"
       d="M 76.428095,125.69809 H 129.25157"
       id="path1720-4-3-7" />
    <rect
       style="display:inline;fill:#71bee7;fill-opacity:1;stroke:none;stroke-width:2.00471;stroke-linejoin:round;stroke-miterlimit:4;stroke-dasharray:none"
       id="rect1724-5-5-0"
       width="52.823479"
       height="31.955799"
       x="-79.929375"
       y="93.741547" />
    <path
       style="display:inline;fill:none;stroke:#000000;stroke-width:2.00471;stroke-linecap:butt;stroke-linejoin:miter;stroke-miterlimit:4;stroke-dasharray:none;stroke-opacity:1"
       d="m -79.929395,93.741875 c 52.82349,0 52.82349,0 52.82349,0"
       id="path1716-48-1-7" />
    <path
       style="display:inline;fill:none;stroke:#000000;stroke-width:2.00471;stroke-linecap:butt;stroke-linejoin:miter;stroke-miterlimit:4;stroke-dasharray:none;stroke-opacity:1"
       d="m -79.929395,125.69776 h 52.82349"
       id="path1720-4-6-8" />
    <path
       style="display:inline;fill:#71bee7;fill-opacity:1;fill-rule:nonzero;stroke:none;stroke-width:0.0357982;stroke-linejoin:round;stroke-miterlimit:4;stroke-dasharray:none"
       d="m -182.75441,93.731942 c -4.28763,0.358106 -8.67983,1.920509 -11.60753,5.22209 -2.71722,2.961308 -3.73357,7.135748 -3.58566,11.087948 -0.0573,4.20271 1.46481,8.5578 4.6775,11.34665 3.02761,2.65513 7.04975,3.93449 11.01091,4.15515 0,-10.6224 0,-21.2448 0,-31.867185 -0.16506,0.01842 -0.33014,0.03694 -0.49522,0.05535 z"
       id="path5052-1-98-65" />
    <path
       style="display:inline;fill:none;stroke:#000000;stroke-width:2.00471;stroke-linecap:butt;stroke-linejoin:miter;stroke-miterlimit:4;stroke-dasharray:none;stroke-opacity:1"
       d="m -182.75443,93.731972 c 0,0 -15.84703,0 -15.84703,15.977898 0,15.97794 15.84703,15.97794 15.84703,15.97794 v 0"
       id="path5048-7-9-83-2"
       sodipodi:nodetypes="cscc" />
    <path
       style="display:inline;fill:#71bee7;fill-opacity:1;fill-rule:nonzero;stroke:none;stroke-width:0.0357982;stroke-linejoin:round;stroke-miterlimit:4;stroke-dasharray:none"
       d="m -130.98744,93.731942 c 4.28764,0.358106 8.67983,1.920509 11.60753,5.22209 2.71722,2.961308 3.73358,7.135748 3.58567,11.087948 0.0573,4.20271 -1.46482,8.5578 -4.67751,11.34665 -3.02761,2.65513 -7.04975,3.93449 -11.01091,4.15515 0,-10.6224 0,-21.2448 0,-31.867185 0.16507,0.01842 0.33015,0.03694 0.49522,0.05535 z"
       id="path5052-1-98-6-7" />
    <path
       style="display:inline;fill:none;stroke:#000000;stroke-width:2.00471;stroke-linecap:butt;stroke-linejoin:miter;stroke-miterlimit:4;stroke-dasharray:none;stroke-opacity:1"
       d="m -130.98742,93.731972 c 0,0 15.84703,0 15.84703,15.977898 0,15.97794 -15.84703,15.97794 -15.84703,15.97794 v 0"
       id="path5048-7-9-83-9-6"
       sodipodi:nodetypes="cscc" />
    <rect
       style="fill:#71bee7;fill-opacity:1;stroke:none;stroke-width:2.00471;stroke-linejoin:round;stroke-miterlimit:4;stroke-dasharray:none"
       id="rect1724-1-9-7-5"
       width="52.823479"
       height="31.955799"
       x="-183.28265"
       y="93.732025" />
    <path
       style="display:inline;fill:none;stroke:#000000;stroke-width:2.00471;stroke-linecap:butt;stroke-linejoin:miter;stroke-miterlimit:4;stroke-dasharray:none;stroke-opacity:1"
       d="m -183.28267,93.73326 c 52.82348,0 52.82348,0 52.82348,0"
       id="path1716-0-8-9-0" />
    <path
       style="display:inline;fill:none;stroke:#000000;stroke-width:2.00471;stroke-linecap:butt;stroke-linejoin:miter;stroke-miterlimit:4;stroke-dasharray:none;stroke-opacity:1"
       d="m -183.28267,125.689 h 52.82348"
       id="path1720-2-4-1-1" />
    <rect
       style="display:inline;fill:#71bee7;fill-opacity:1;stroke:none;stroke-width:2.00471;stroke-linejoin:round;stroke-miterlimit:4;stroke-dasharray:none"
       id="rect1724-5-36-6-8"
       width="52.823479"
       height="31.955799"
       x="128.72331"
       y="93.742363" />
    <path
       style="display:inline;fill:none;stroke:#000000;stroke-width:2.00471;stroke-linecap:butt;stroke-linejoin:miter;stroke-miterlimit:4;stroke-dasharray:none;stroke-opacity:1"
       d="m 128.72331,93.742288 c 52.82349,0 52.82349,0 52.82349,0"
       id="path1716-48-81-0-6" />
    <path
       style="display:inline;fill:none;stroke:#000000;stroke-width:2.00471;stroke-linecap:butt;stroke-linejoin:miter;stroke-miterlimit:4;stroke-dasharray:none;stroke-opacity:1"
       d="M 128.72331,125.69818 H 181.5468"
       id="path1720-4-3-1-0" />
    <text
       xml:space="preserve"
       style="font-style:normal;font-weight:normal;font-size:30.0706px;line-height:1.25;font-family:sans-serif;letter-spacing:26.5205px;fill:#000000;fill-opacity:1;stroke:#000000;stroke-width:3.00706;stroke-miterlimit:4;stroke-dasharray:none;stroke-opacity:1"
       x="-48.750053"
       y="120.19315"
       id="text5545-6"
       transform="scale(0.99589671,1.0041202)"><tspan
         sodipodi:role="line"
         id="tspan5543-1"
         x="-48.750053"
         y="120.19315"
         style="font-size:30.0706px;stroke:#000000;stroke-width:3.00706;stroke-miterlimit:4;stroke-dasharray:none;stroke-opacity:1"><tspan
   style="letter-spacing:10.6082px;stroke-width:3.00706"
   id="tspan905-7">WORL</tspan>D2</tspan></text>
    <path
       style="fill:none;stroke:#000000;stroke-width:3.00706;stroke-linecap:butt;stroke-linejoin:miter;stroke-miterlimit:4;stroke-dasharray:none;stroke-opacity:1"
       d="m -139.68667,107.77691 -31.74908,2.9e-4 8.95382,-9.146354"
       id="path915-8"
       sodipodi:nodetypes="ccc" />
    <path
       style="fill:none;stroke:#000000;stroke-width:3.00557;stroke-linecap:butt;stroke-linejoin:miter;stroke-miterlimit:4;stroke-dasharray:none;stroke-opacity:1"
       d="m -139.68666,110.77477 h -31.75436 l 8.95531,9.15898"
       id="path915-2-4"
       sodipodi:nodetypes="ccc" />
    <path
       style="display:inline;fill:#ef919b;fill-opacity:1;fill-rule:nonzero;stroke:none;stroke-width:0.0357982;stroke-linejoin:round;stroke-miterlimit:4;stroke-dasharray:none"
       d="m 181.54681,127.74228 c 4.28762,0.35811 8.67982,1.92051 11.60752,5.22209 2.71722,2.96131 3.73357,7.13574 3.58566,11.08795 0.0573,4.2027 -1.4648,8.5578 -4.6775,11.34665 -3.02761,2.65513 -7.04975,3.93449 -11.01091,4.15515 0,-10.6224 0,-21.2448 0,-31.86718 0.16507,0.0184 0.33014,0.0369 0.49523,0.0553 z"
       id="path5052-8-48-6" />
    <path
       style="display:inline;fill:none;stroke:#000000;stroke-width:2.00471;stroke-linecap:butt;stroke-linejoin:miter;stroke-miterlimit:4;stroke-dasharray:none;stroke-opacity:1"
       d="m 181.54681,127.74229 c 0,0 15.84703,0 15.84703,15.9779 0,15.9779 -15.84703,15.9779 -15.84703,15.9779 v 0"
       id="path5048-6-2-4"
       sodipodi:nodetypes="cscc" />
    <path
       style="display:inline;fill:#ef919b;fill-opacity:1;fill-rule:nonzero;stroke:none;stroke-width:0.0357982;stroke-linejoin:round;stroke-miterlimit:4;stroke-dasharray:none"
       d="m -79.368432,127.70306 c -4.287627,0.3581 -8.679829,1.92051 -11.607524,5.22209 -2.717217,2.96131 -3.733575,7.13574 -3.585665,11.08794 -0.0573,4.20271 1.464806,8.55781 4.677508,11.34666 3.02761,2.65513 7.049745,3.93448 11.010907,4.15515 0,-10.6224 0,-21.2448 0,-31.86719 -0.165079,0.0184 -0.330148,0.0369 -0.495226,0.0554 z"
       id="path5052-8-3-7" />
    <path
       style="display:inline;fill:none;stroke:#000000;stroke-width:2.00471;stroke-linecap:butt;stroke-linejoin:miter;stroke-miterlimit:4;stroke-dasharray:none;stroke-opacity:1"
       d="m -79.368432,127.70307 c 0,0 -15.847035,0 -15.847035,15.97789 0,15.9779 15.847035,15.9779 15.847035,15.9779 v 0"
       id="path5048-6-8-0"
       sodipodi:nodetypes="cscc" />
    <rect
       style="display:inline;fill:#ef919b;fill-opacity:1;stroke:none;stroke-width:2.00471;stroke-linejoin:round;stroke-miterlimit:4;stroke-dasharray:none"
       id="rect1724-5-3-1"
       width="52.823479"
       height="31.955799"
       x="-27.105852"
       y="127.74124" />
    <path
       style="display:inline;fill:none;stroke:#000000;stroke-width:2.00471;stroke-linecap:butt;stroke-linejoin:miter;stroke-miterlimit:4;stroke-dasharray:none;stroke-opacity:1"
       d="m -27.105886,127.74156 c 52.823491,0 52.823491,0 52.823491,0"
       id="path1716-48-8-5" />
    <path
       style="display:inline;fill:none;stroke:#000000;stroke-width:2.00471;stroke-linecap:butt;stroke-linejoin:miter;stroke-miterlimit:4;stroke-dasharray:none;stroke-opacity:1"
       d="M -27.105886,159.69744 H 25.717605"
       id="path1720-4-1-3" />
    <rect
       style="display:inline;fill:#ef919b;fill-opacity:1;stroke:none;stroke-width:2.00471;stroke-linejoin:round;stroke-miterlimit:4;stroke-dasharray:none"
       id="rect1724-5-6-1"
       width="52.823479"
       height="31.955799"
       x="25.717592"
       y="127.74155" />
    <path
       style="display:inline;fill:none;stroke:#000000;stroke-width:2.00471;stroke-linecap:butt;stroke-linejoin:miter;stroke-miterlimit:4;stroke-dasharray:none;stroke-opacity:1"
       d="m 25.717575,127.74188 c 52.82348,0 52.82348,0 52.82348,0"
       id="path1716-48-2-6" />
    <path
       style="display:inline;fill:none;stroke:#000000;stroke-width:2.00471;stroke-linecap:butt;stroke-linejoin:miter;stroke-miterlimit:4;stroke-dasharray:none;stroke-opacity:1"
       d="m 25.717575,159.69776 h 52.82348"
       id="path1720-4-8-1" />
    <rect
       style="display:inline;fill:#ef919b;fill-opacity:1;stroke:none;stroke-width:2.00471;stroke-linejoin:round;stroke-miterlimit:4;stroke-dasharray:none"
       id="rect1724-5-36-3"
       width="52.823479"
       height="31.955799"
       x="76.428085"
       y="127.74229" />
    <path
       style="display:inline;fill:none;stroke:#000000;stroke-width:2.00471;stroke-linecap:butt;stroke-linejoin:miter;stroke-miterlimit:4;stroke-dasharray:none;stroke-opacity:1"
       d="m 76.428105,127.7422 c 52.823475,0 52.823475,0 52.823475,0"
       id="path1716-48-81-4" />
    <path
       style="display:inline;fill:none;stroke:#000000;stroke-width:2.00471;stroke-linecap:butt;stroke-linejoin:miter;stroke-miterlimit:4;stroke-dasharray:none;stroke-opacity:1"
       d="M 76.428105,159.69809 H 129.25158"
       id="path1720-4-3-9" />
    <rect
       style="display:inline;fill:#ef919b;fill-opacity:1;stroke:none;stroke-width:2.00471;stroke-linejoin:round;stroke-miterlimit:4;stroke-dasharray:none"
       id="rect1724-5-5-5"
       width="52.823479"
       height="31.955799"
       x="-79.929375"
       y="127.74155" />
    <path
       style="display:inline;fill:none;stroke:#000000;stroke-width:2.00471;stroke-linecap:butt;stroke-linejoin:miter;stroke-miterlimit:4;stroke-dasharray:none;stroke-opacity:1"
       d="m -79.929393,127.74188 c 52.823487,0 52.823487,0 52.823487,0"
       id="path1716-48-1-1" />
    <path
       style="display:inline;fill:none;stroke:#000000;stroke-width:2.00471;stroke-linecap:butt;stroke-linejoin:miter;stroke-miterlimit:4;stroke-dasharray:none;stroke-opacity:1"
       d="m -79.929393,159.69776 h 52.823487"
       id="path1720-4-6-9" />
    <path
       style="display:inline;fill:#ef919b;fill-opacity:1;fill-rule:nonzero;stroke:none;stroke-width:0.0357982;stroke-linejoin:round;stroke-miterlimit:4;stroke-dasharray:none"
       d="m -182.7544,127.73195 c -4.28764,0.3581 -8.67984,1.9205 -11.60754,5.22209 -2.71722,2.9613 -3.73357,7.13574 -3.58566,11.08794 -0.0573,4.2027 1.46481,8.5578 4.6775,11.34665 3.02761,2.65513 7.04976,3.93449 11.01092,4.15515 0,-10.6224 0,-21.2448 0,-31.86718 -0.16506,0.0184 -0.33014,0.0369 -0.49522,0.0553 z"
       id="path5052-1-98-1" />
    <path
       style="display:inline;fill:none;stroke:#000000;stroke-width:2.00471;stroke-linecap:butt;stroke-linejoin:miter;stroke-miterlimit:4;stroke-dasharray:none;stroke-opacity:1"
       d="m -182.75442,127.73197 c 0,0 -15.84704,0 -15.84704,15.9779 0,15.97794 15.84704,15.97794 15.84704,15.97794 v 0"
       id="path5048-7-9-83-23"
       sodipodi:nodetypes="cscc" />
    <path
       style="display:inline;fill:#ef919b;fill-opacity:1;fill-rule:nonzero;stroke:none;stroke-width:0.0357982;stroke-linejoin:round;stroke-miterlimit:4;stroke-dasharray:none"
       d="m -130.98743,127.73195 c 4.28764,0.3581 8.67983,1.9205 11.60753,5.22209 2.71722,2.9613 3.73358,7.13574 3.58567,11.08794 0.0573,4.2027 -1.46482,8.5578 -4.67751,11.34665 -3.02761,2.65513 -7.04975,3.93449 -11.01091,4.15515 0,-10.6224 0,-21.2448 0,-31.86718 0.16507,0.0184 0.33015,0.0369 0.49522,0.0553 z"
       id="path5052-1-98-6-5" />
    <path
       style="display:inline;fill:none;stroke:#000000;stroke-width:2.00471;stroke-linecap:butt;stroke-linejoin:miter;stroke-miterlimit:4;stroke-dasharray:none;stroke-opacity:1"
       d="m -130.98741,127.73197 c 0,0 15.84703,0 15.84703,15.9779 0,15.97794 -15.84703,15.97794 -15.84703,15.97794 v 0"
       id="path5048-7-9-83-9-3"
       sodipodi:nodetypes="cscc" />
    <rect
       style="fill:#ef919b;fill-opacity:1;stroke:none;stroke-width:2.00471;stroke-linejoin:round;stroke-miterlimit:4;stroke-dasharray:none"
       id="rect1724-1-9-7-6"
       width="52.823479"
       height="31.955799"
       x="-183.28264"
       y="127.73203" />
    <path
       style="display:inline;fill:none;stroke:#000000;stroke-width:2.00471;stroke-linecap:butt;stroke-linejoin:miter;stroke-miterlimit:4;stroke-dasharray:none;stroke-opacity:1"
       d="m -183.28266,127.73326 c 52.82348,0 52.82348,0 52.82348,0"
       id="path1716-0-8-9-09" />
    <path
       style="display:inline;fill:none;stroke:#000000;stroke-width:2.00471;stroke-linecap:butt;stroke-linejoin:miter;stroke-miterlimit:4;stroke-dasharray:none;stroke-opacity:1"
       d="m -183.28266,159.689 h 52.82348"
       id="path1720-2-4-1-2" />
    <rect
       style="display:inline;fill:#ef919b;fill-opacity:1;stroke:none;stroke-width:2.00471;stroke-linejoin:round;stroke-miterlimit:4;stroke-dasharray:none"
       id="rect1724-5-36-6-5"
       width="52.823479"
       height="31.955799"
       x="128.7233"
       y="127.74236" />
    <path
       style="display:inline;fill:none;stroke:#000000;stroke-width:2.00471;stroke-linecap:butt;stroke-linejoin:miter;stroke-miterlimit:4;stroke-dasharray:none;stroke-opacity:1"
       d="m 128.72332,127.74229 c 52.82349,0 52.82349,0 52.82349,0"
       id="path1716-48-81-0-0" />
    <path
       style="display:inline;fill:none;stroke:#000000;stroke-width:2.00471;stroke-linecap:butt;stroke-linejoin:miter;stroke-miterlimit:4;stroke-dasharray:none;stroke-opacity:1"
       d="m 128.72332,159.69818 h 52.82349"
       id="path1720-4-3-1-3" />
    <text
       xml:space="preserve"
       style="font-style:normal;font-weight:normal;font-size:30.0706px;line-height:1.25;font-family:sans-serif;letter-spacing:26.5205px;fill:#000000;fill-opacity:1;stroke:#000000;stroke-width:3.00706;stroke-miterlimit:4;stroke-dasharray:none;stroke-opacity:1"
       x="-48.750057"
       y="154.05363"
       id="text5545-2"
       transform="scale(0.99589671,1.0041202)"><tspan
         sodipodi:role="line"
         id="tspan5543-0"
         x="-48.750057"
         y="154.05363"
         style="font-size:30.0706px;stroke:#000000;stroke-width:3.00706;stroke-miterlimit:4;stroke-dasharray:none;stroke-opacity:1"><tspan
   style="letter-spacing:10.6082px;stroke-width:3.00706"
   id="tspan905-8">WORL</tspan>D3</tspan></text>
    <path
       style="fill:none;stroke:#000000;stroke-width:3.00706;stroke-linecap:butt;stroke-linejoin:miter;stroke-miterlimit:4;stroke-dasharray:none;stroke-opacity:1"
       d="m -139.68666,141.77691 -31.74908,2.9e-4 8.95382,-9.14635"
       id="path915-4"
       sodipodi:nodetypes="ccc" />
    <path
       style="fill:none;stroke:#000000;stroke-width:3.00557;stroke-linecap:butt;stroke-linejoin:miter;stroke-miterlimit:4;stroke-dasharray:none;stroke-opacity:1"
       d="m -139.68665,144.77477 h -31.75436 l 8.95531,9.15898"
       id="path915-2-5"
       sodipodi:nodetypes="ccc" />
  </g>
</svg>
