<?xml version="1.0" encoding="UTF-8" standalone="no"?>
<svg
   xmlns:dc="http://purl.org/dc/elements/1.1/"
   xmlns:cc="http://creativecommons.org/ns#"
   xmlns:rdf="http://www.w3.org/1999/02/22-rdf-syntax-ns#"
   xmlns:svg="http://www.w3.org/2000/svg"
   xmlns="http://www.w3.org/2000/svg"
   xmlns:sodipodi="http://sodipodi.sourceforge.net/DTD/sodipodi-0.dtd"
   xmlns:inkscape="http://www.inkscape.org/namespaces/inkscape"
   width="398.69385mm"
   height="34mm"
   viewBox="0 0 398.69385 34"
   version="1.1"
   id="svg3843"
   inkscape:version="1.0.2 (e86c870879, 2021-01-15, custom)"
   sodipodi:docname="settings_buttons.svg"
   inkscape:export-filename="C:\Users\PC-AUREL\Documents\OTHER\diverese Programmfiles\Solar2D\pipe_game\inkscape\settings_buttons.png"
   inkscape:export-xdpi="50.799999"
   inkscape:export-ydpi="50.799999">
  <defs
     id="defs3837" />
  <sodipodi:namedview
     id="base"
     pagecolor="#ffffff"
     bordercolor="#666666"
     borderopacity="1.0"
     inkscape:pageopacity="0.0"
     inkscape:pageshadow="2"
     inkscape:zoom="0.35"
     inkscape:cx="704.85734"
     inkscape:cy="46.303296"
     inkscape:document-units="mm"
     inkscape:current-layer="layer1"
     inkscape:document-rotation="0"
     showgrid="false"
     inkscape:window-width="1280"
     inkscape:window-height="658"
     inkscape:window-x="-6"
     inkscape:window-y="-6"
     inkscape:window-maximized="1"
     inkscape:snap-bbox="true" />
  <metadata
     id="metadata3840">
    <rdf:RDF>
      <cc:Work
         rdf:about="">
        <dc:format>image/svg+xml</dc:format>
        <dc:type
           rdf:resource="http://purl.org/dc/dcmitype/StillImage" />
        <dc:title></dc:title>
      </cc:Work>
    </rdf:RDF>
  </metadata>
  <g
     inkscape:label="Layer 1"
     inkscape:groupmode="layer"
     id="layer1"
     transform="translate(199.60381,-58.700708)">
    <path
       style="display:inline;fill:#f6f7b0;fill-opacity:1;fill-rule:nonzero;stroke:none;stroke-width:0.0357982;stroke-linejoin:round;stroke-miterlimit:4;stroke-dasharray:none"
       d="m 181.54681,59.742501 c 4.28762,0.358107 8.67982,1.920509 11.60752,5.222091 2.71722,2.961311 3.73357,7.135746 3.58566,11.087948 0.0573,4.202706 -1.4648,8.557803 -4.6775,11.346653 -3.02761,2.655129 -7.04975,3.934489 -11.01091,4.155151 0,-10.6224 0,-21.244799 0,-31.867189 0.16507,0.01842 0.33014,0.03694 0.49523,0.05535 z"
       id="path5052-8-48" />
    <path
       style="display:inline;fill:none;stroke:#000000;stroke-width:2.00471;stroke-linecap:butt;stroke-linejoin:miter;stroke-miterlimit:4;stroke-dasharray:none;stroke-opacity:1"
       d="m 181.54681,59.742511 c 0,0 15.84703,0 15.84703,15.9779 0,15.977899 -15.84703,15.977899 -15.84703,15.977899 v 0"
       id="path5048-6-2"
       sodipodi:nodetypes="cscc" />
    <path
       style="display:inline;fill:#f6f7b0;fill-opacity:1;fill-rule:nonzero;stroke:none;stroke-width:0.0357982;stroke-linejoin:round;stroke-miterlimit:4;stroke-dasharray:none"
       d="m -79.36844,59.703278 c -4.287627,0.358107 -8.679829,1.920509 -11.607524,5.222092 -2.717217,2.961311 -3.733575,7.135745 -3.585665,11.087947 -0.0573,4.202706 1.464806,8.557804 4.677508,11.346654 3.02761,2.655129 7.049745,3.934488 11.010907,4.15515 0,-10.622399 0,-21.244799 0,-31.867188 -0.165079,0.01842 -0.330148,0.03694 -0.495226,0.05535 z"
       id="path5052-8-3" />
    <path
       style="display:inline;fill:none;stroke:#000000;stroke-width:2.00471;stroke-linecap:butt;stroke-linejoin:miter;stroke-miterlimit:4;stroke-dasharray:none;stroke-opacity:1"
       d="m -79.36844,59.703288 c 0,0 -15.847035,0 -15.847035,15.977901 0,15.977899 15.847035,15.977899 15.847035,15.977899 v 0"
       id="path5048-6-8"
       sodipodi:nodetypes="cscc" />
    <rect
       style="display:inline;fill:#f6f7b0;fill-opacity:1;stroke:none;stroke-width:2.00471;stroke-linejoin:round;stroke-miterlimit:4;stroke-dasharray:none"
       id="rect1724-5-3"
       width="52.823479"
       height="31.955799"
       x="-27.10586"
       y="59.741463" />
    <path
       style="display:inline;fill:none;stroke:#000000;stroke-width:2.00471;stroke-linecap:butt;stroke-linejoin:miter;stroke-miterlimit:4;stroke-dasharray:none;stroke-opacity:1"
       d="m -27.105894,59.741776 c 52.823487,0 52.823487,0 52.823487,0"
       id="path1716-48-8" />
    <path
       style="display:inline;fill:none;stroke:#000000;stroke-width:2.00471;stroke-linecap:butt;stroke-linejoin:miter;stroke-miterlimit:4;stroke-dasharray:none;stroke-opacity:1"
       d="M -27.105894,91.697666 H 25.717593"
       id="path1720-4-1" />
    <rect
       style="display:inline;fill:#f6f7b0;fill-opacity:1;stroke:none;stroke-width:2.00471;stroke-linejoin:round;stroke-miterlimit:4;stroke-dasharray:none"
       id="rect1724-5-6"
       width="52.823479"
       height="31.955799"
       x="25.717585"
       y="59.741772" />
    <path
       style="display:inline;fill:none;stroke:#000000;stroke-width:2.00471;stroke-linecap:butt;stroke-linejoin:miter;stroke-miterlimit:4;stroke-dasharray:none;stroke-opacity:1"
       d="m 25.717563,59.742098 c 52.823487,0 52.823487,0 52.823487,0"
       id="path1716-48-2" />
    <path
       style="display:inline;fill:none;stroke:#000000;stroke-width:2.00471;stroke-linecap:butt;stroke-linejoin:miter;stroke-miterlimit:4;stroke-dasharray:none;stroke-opacity:1"
       d="M 25.717563,91.697988 H 78.54105"
       id="path1720-4-8" />
    <rect
       style="display:inline;fill:#f6f7b0;fill-opacity:1;stroke:none;stroke-width:2.00471;stroke-linejoin:round;stroke-miterlimit:4;stroke-dasharray:none"
       id="rect1724-5-36"
       width="52.823479"
       height="31.955799"
       x="76.428085"
       y="59.742508" />
    <path
       style="display:inline;fill:none;stroke:#000000;stroke-width:2.00471;stroke-linecap:butt;stroke-linejoin:miter;stroke-miterlimit:4;stroke-dasharray:none;stroke-opacity:1"
       d="m 76.428097,59.74242 c 52.823483,0 52.823483,0 52.823483,0"
       id="path1716-48-81" />
    <path
       style="display:inline;fill:none;stroke:#000000;stroke-width:2.00471;stroke-linecap:butt;stroke-linejoin:miter;stroke-miterlimit:4;stroke-dasharray:none;stroke-opacity:1"
       d="M 76.428097,91.69831 H 129.25158"
       id="path1720-4-3" />
    <rect
       style="display:inline;fill:#f6f7b0;fill-opacity:1;stroke:none;stroke-width:2.00471;stroke-linejoin:round;stroke-miterlimit:4;stroke-dasharray:none"
       id="rect1724-5-5"
       width="52.823479"
       height="31.955799"
       x="-79.929382"
       y="59.741772" />
    <path
       style="display:inline;fill:none;stroke:#000000;stroke-width:2.00471;stroke-linecap:butt;stroke-linejoin:miter;stroke-miterlimit:4;stroke-dasharray:none;stroke-opacity:1"
       d="m -79.929401,59.742098 c 52.823487,0 52.823487,0 52.823487,0"
       id="path1716-48-1" />
    <path
       style="display:inline;fill:none;stroke:#000000;stroke-width:2.00471;stroke-linecap:butt;stroke-linejoin:miter;stroke-miterlimit:4;stroke-dasharray:none;stroke-opacity:1"
       d="m -79.929401,91.697988 h 52.823487"
       id="path1720-4-6" />
    <path
       style="display:inline;fill:#f6f7b0;fill-opacity:1;fill-rule:nonzero;stroke:none;stroke-width:0.0357982;stroke-linejoin:round;stroke-miterlimit:4;stroke-dasharray:none"
       d="m -182.75441,59.732165 c -4.28763,0.358106 -8.67983,1.920509 -11.60753,5.22209 -2.71722,2.961312 -3.73357,7.135746 -3.58566,11.087948 -0.0573,4.202706 1.46481,8.557803 4.6775,11.346653 3.02761,2.65513 7.04975,3.93449 11.01091,4.15515 0,-10.622399 0,-21.244798 0,-31.867188 -0.16506,0.01842 -0.33014,0.03694 -0.49522,0.05535 z"
       id="path5052-1-98" />
    <path
       style="display:inline;fill:none;stroke:#000000;stroke-width:2.00471;stroke-linecap:butt;stroke-linejoin:miter;stroke-miterlimit:4;stroke-dasharray:none;stroke-opacity:1"
       d="m -182.75443,59.732195 c 0,0 -15.84703,0 -15.84703,15.977899 0,15.97794 15.84703,15.97794 15.84703,15.97794 v 0"
       id="path5048-7-9-83"
       sodipodi:nodetypes="cscc" />
    <path
       style="display:inline;fill:#f6f7b0;fill-opacity:1;fill-rule:nonzero;stroke:none;stroke-width:0.0357982;stroke-linejoin:round;stroke-miterlimit:4;stroke-dasharray:none"
       d="m -130.98744,59.732165 c 4.28764,0.358106 8.67983,1.920509 11.60753,5.22209 2.71722,2.961312 3.73358,7.135746 3.58567,11.087948 0.0573,4.202706 -1.46482,8.557803 -4.67751,11.346653 -3.02761,2.65513 -7.04975,3.93449 -11.01091,4.15515 0,-10.622399 0,-21.244798 0,-31.867188 0.16507,0.01842 0.33015,0.03694 0.49522,0.05535 z"
       id="path5052-1-98-6" />
    <path
       style="display:inline;fill:none;stroke:#000000;stroke-width:2.00471;stroke-linecap:butt;stroke-linejoin:miter;stroke-miterlimit:4;stroke-dasharray:none;stroke-opacity:1"
       d="m -130.98742,59.732195 c 0,0 15.84703,0 15.84703,15.977899 0,15.97794 -15.84703,15.97794 -15.84703,15.97794 v 0"
       id="path5048-7-9-83-9"
       sodipodi:nodetypes="cscc" />
    <rect
       style="fill:#f6f7b0;fill-opacity:1;stroke:none;stroke-width:2.00471;stroke-linejoin:round;stroke-miterlimit:4;stroke-dasharray:none"
       id="rect1724-1-9-7"
       width="52.823479"
       height="31.955799"
       x="-183.28265"
       y="59.73225" />
    <path
       style="display:inline;fill:none;stroke:#000000;stroke-width:2.00471;stroke-linecap:butt;stroke-linejoin:miter;stroke-miterlimit:4;stroke-dasharray:none;stroke-opacity:1"
       d="m -183.28267,59.733483 c 52.82348,0 52.82348,0 52.82348,0"
       id="path1716-0-8-9" />
    <path
       style="display:inline;fill:none;stroke:#000000;stroke-width:2.00471;stroke-linecap:butt;stroke-linejoin:miter;stroke-miterlimit:4;stroke-dasharray:none;stroke-opacity:1"
       d="m -183.28267,91.689221 h 52.82348"
       id="path1720-2-4-1" />
    <rect
       style="display:inline;fill:#f6f7b0;fill-opacity:1;stroke:none;stroke-width:2.00471;stroke-linejoin:round;stroke-miterlimit:4;stroke-dasharray:none"
       id="rect1724-5-36-6"
       width="52.823479"
       height="31.955799"
       x="128.7233"
       y="59.742584" />
    <path
       style="display:inline;fill:none;stroke:#000000;stroke-width:2.00471;stroke-linecap:butt;stroke-linejoin:miter;stroke-miterlimit:4;stroke-dasharray:none;stroke-opacity:1"
       d="m 128.72332,59.742511 c 52.82349,0 52.82349,0 52.82349,0"
       id="path1716-48-81-0" />
    <path
       style="display:inline;fill:none;stroke:#000000;stroke-width:2.00471;stroke-linecap:butt;stroke-linejoin:miter;stroke-miterlimit:4;stroke-dasharray:none;stroke-opacity:1"
       d="m 128.72332,91.698401 h 52.82349"
       id="path1720-4-3-1" />
    <path
       style="fill:none;stroke:#000000;stroke-width:3.00706;stroke-linecap:butt;stroke-linejoin:miter;stroke-miterlimit:4;stroke-dasharray:none;stroke-opacity:1"
       d="m -139.68667,73.777134 -31.74908,2.91e-4 8.95382,-9.146356"
       id="path915"
       sodipodi:nodetypes="ccc" />
    <path
       style="fill:none;stroke:#000000;stroke-width:3.00557;stroke-linecap:butt;stroke-linejoin:miter;stroke-miterlimit:4;stroke-dasharray:none;stroke-opacity:1"
       d="m -139.68666,76.77499 h -31.75436 l 8.95531,9.158985"
       id="path915-2"
       sodipodi:nodetypes="ccc" />
    <rect
       style="fill:none;stroke:#000000;stroke-width:1;stroke-miterlimit:4;stroke-dasharray:none;stroke-opacity:1;paint-order:fill markers stroke"
       id="rect5260"
       width="4.0687962"
       height="24.068796"
       x="49.338005"
       y="63.700706" />
    <path
       style="fill:#f6f7b0;fill-opacity:1;stroke:none;stroke-width:0.264583px;stroke-linecap:butt;stroke-linejoin:miter;stroke-opacity:1"
       d="m 49.839488,66.471806 v 1.889881 l 3.05924,0.0945 0.0118,-2.256045 z"
       id="path5262"
       sodipodi:nodetypes="ccccc" />
    <path
       style="fill:#f6f7b0;fill-opacity:1;stroke:none;stroke-width:0.264583px;stroke-linecap:butt;stroke-linejoin:miter;stroke-opacity:1"
       d="m 49.839488,85.37062 3.04743,0.0236 0.0354,-2.26786 -3.09468,-0.212614 z"
       id="path5266"
       sodipodi:nodetypes="ccccc" />
    <rect
       style="fill:none;stroke:#000000;stroke-width:1;stroke-miterlimit:4;stroke-dasharray:none;stroke-opacity:1;paint-order:fill markers stroke"
       id="rect5260-0"
       width="4.0687962"
       height="24.068796"
       x="49.33799"
       y="63.700706" />
    <rect
       style="fill:none;stroke:#000000;stroke-width:1;stroke-miterlimit:4;stroke-dasharray:none;stroke-opacity:1;paint-order:fill markers stroke"
       id="rect5260-0-3"
       width="4.0687962"
       height="24.068796"
       x="-77.769516"
       y="39.33799"
       transform="rotate(-90)" />
    <rect
       style="fill:none;stroke:#000000;stroke-width:1;stroke-miterlimit:4;stroke-dasharray:none;stroke-opacity:1;paint-order:fill markers stroke"
       id="rect5260-0-3-8"
       width="4.0687962"
       height="24.068796"
       x="-19.573406"
       y="77.783821"
       transform="rotate(-45.19893)" />
    <rect
       style="fill:none;stroke:#000000;stroke-width:1;stroke-miterlimit:4;stroke-dasharray:none;stroke-opacity:1;paint-order:fill markers stroke"
       id="rect5260-0-3-9"
       width="4.0687962"
       height="24.068796"
       x="-92.065727"
       y="-28.444447"
       transform="rotate(-134.47963)" />
    <ellipse
       style="fill:#f6f7b0;fill-opacity:1;stroke:#000000;stroke-width:1;stroke-miterlimit:4;stroke-dasharray:none;stroke-opacity:1;paint-order:fill markers stroke"
       id="path5236-4"
       cx="51.372414"
       cy="75.735107"
       rx="8.5714293"
       ry="8.5714283" />
    <ellipse
       style="fill:#f6f7b0;fill-opacity:1;stroke:#000000;stroke-width:1;stroke-miterlimit:4;stroke-dasharray:none;stroke-opacity:1;paint-order:fill markers stroke"
       id="path5236"
       cx="51.372414"
       cy="75.735107"
       rx="3.6363635"
       ry="3.6363637" />
    <path
       style="fill:#f6f7b0;fill-opacity:1;stroke:none;stroke-width:0.264583px;stroke-linecap:butt;stroke-linejoin:miter;stroke-opacity:1"
       d="m 49.839488,66.471806 v 1.889881 l 3.05924,0.0945 0.0118,-2.256045 z"
       id="path5262-8"
       sodipodi:nodetypes="ccccc" />
    <path
       style="fill:#f6f7b0;fill-opacity:1;stroke:none;stroke-width:0.264583px;stroke-linecap:butt;stroke-linejoin:miter;stroke-opacity:1"
       d="m 49.839488,85.37062 3.04743,0.0236 0.0354,-2.26786 -3.09468,-0.212614 z"
       id="path5266-7"
       sodipodi:nodetypes="ccccc" />
    <path
       style="fill:#f6f7b0;fill-opacity:1;stroke:none;stroke-width:0.264583px;stroke-linecap:butt;stroke-linejoin:miter;stroke-opacity:1"
       d="m 58.922968,77.273247 h 1.88988 l 0.0945,-3.05924 -2.25604,-0.0118 z"
       id="path5262-8-3"
       sodipodi:nodetypes="ccccc" />
    <path
       style="fill:#f6f7b0;fill-opacity:1;stroke:none;stroke-width:0.264583px;stroke-linecap:butt;stroke-linejoin:miter;stroke-opacity:1"
       d="m 44.170118,77.273157 0.0236,-3.04743 -2.26785,-0.0354 -0.21261,3.09468 z"
       id="path5266-7-2"
       sodipodi:nodetypes="ccccc" />
    <path
       style="fill:#f6f7b0;fill-opacity:1;stroke:none;stroke-width:0.264583px;stroke-linecap:butt;stroke-linejoin:miter;stroke-opacity:1"
       d="m 55.646118,82.147007 1.34098,1.331703 2.22274,-2.104122 -1.59248,-1.598085 z"
       id="path5262-8-3-7"
       sodipodi:nodetypes="ccccc" />
    <path
       style="fill:#f6f7b0;fill-opacity:1;stroke:none;stroke-width:0.264583px;stroke-linecap:butt;stroke-linejoin:miter;stroke-opacity:1"
       d="m 45.178178,71.75138 2.16411,-2.145697 -1.58423,-1.623153 -2.33151,2.046038 z"
       id="path5266-7-2-4"
       sodipodi:nodetypes="ccccc" />
    <path
       style="fill:#f6f7b0;fill-opacity:1;stroke:none;stroke-width:0.264583px;stroke-linecap:butt;stroke-linejoin:miter;stroke-opacity:1"
       d="m 57.837428,71.54221 1.34843,-1.324156 -2.07605,-2.248978 -1.61795,1.572288 z"
       id="path5262-8-3-2"
       sodipodi:nodetypes="ccccc" />
    <path
       style="fill:#f6f7b0;fill-opacity:1;stroke:none;stroke-width:0.264583px;stroke-linecap:butt;stroke-linejoin:miter;stroke-opacity:1"
       d="m 47.311208,81.878818 -2.11836,-2.190876 -1.64291,1.563724 2.01661,2.357014 z"
       id="path5266-7-2-8"
       sodipodi:nodetypes="ccccc" />
  </g>
</svg>
