<?xml version="1.0" encoding="UTF-8" standalone="no"?>
<svg
   xmlns:dc="http://purl.org/dc/elements/1.1/"
   xmlns:cc="http://creativecommons.org/ns#"
   xmlns:rdf="http://www.w3.org/1999/02/22-rdf-syntax-ns#"
   xmlns:svg="http://www.w3.org/2000/svg"
   xmlns="http://www.w3.org/2000/svg"
   xmlns:sodipodi="http://sodipodi.sourceforge.net/DTD/sodipodi-0.dtd"
   xmlns:inkscape="http://www.inkscape.org/namespaces/inkscape"
   width="502.01715mm"
   height="33.789062mm"
   viewBox="0 0 502.01715 33.789062"
   version="1.1"
   id="svg3843"
   inkscape:version="1.0.2 (e86c870879, 2021-01-15, custom)"
   sodipodi:docname="title_buttons.svg"
   inkscape:export-filename="C:\Users\PC-AUREL\Documents\OTHER\diverese Programmfiles\Solar2D\pipe_game\inkscape\title_buttons.png"
   inkscape:export-xdpi="50.799999"
   inkscape:export-ydpi="50.799999">
  <defs
     id="defs3837" />
  <sodipodi:namedview
     id="base"
     pagecolor="#ffffff"
     bordercolor="#666666"
     borderopacity="1.0"
     inkscape:pageopacity="0.0"
     inkscape:pageshadow="2"
     inkscape:zoom="0.49497475"
     inkscape:cx="858.47698"
     inkscape:cy="111.19506"
     inkscape:document-units="mm"
     inkscape:current-layer="layer1"
     inkscape:document-rotation="0"
     showgrid="false"
     inkscape:window-width="1920"
     inkscape:window-height="1018"
     inkscape:window-x="3834"
     inkscape:window-y="-6"
     inkscape:window-maximized="1"
     inkscape:snap-bbox="true" />
  <metadata
     id="metadata3840">
    <rdf:RDF>
      <cc:Work
         rdf:about="">
        <dc:format>image/svg+xml</dc:format>
        <dc:type
           rdf:resource="http://purl.org/dc/dcmitype/StillImage" />
        <dc:title />
      </cc:Work>
    </rdf:RDF>
  </metadata>
  <g
     inkscape:label="Layer 1"
     inkscape:groupmode="layer"
     id="layer1"
     transform="translate(199.60381,-58.700708)">
    <path
       style="display:inline;fill:#ef919b;fill-opacity:1;fill-rule:nonzero;stroke:none;stroke-width:0.0357143;stroke-linejoin:round;stroke-miterlimit:4;stroke-dasharray:none"
       d="m 182.21505,59.73967 c 4.29519,0.3558 8.69514,1.90814 11.628,5.18846 2.72201,2.94224 3.74016,7.08979 3.59199,11.01654 0.0574,4.17564 -1.46739,8.50269 -4.68576,11.27358 -3.03295,2.63803 -7.06218,3.90915 -11.03033,4.12839 0,-10.55399 0,-21.10798 0,-31.66196 0.16537,0.0183 0.33073,0.0367 0.4961,0.055 z"
       id="path5052-8-48" />
    <path
       style="display:inline;fill:none;stroke:#000000;stroke-width:2;stroke-linecap:butt;stroke-linejoin:miter;stroke-miterlimit:4;stroke-dasharray:none;stroke-opacity:1"
       d="m 182.21505,59.73968 c 0,0 15.87499,0 15.87499,15.875 0,15.875 -15.87499,15.875 -15.87499,15.875 v 0"
       id="path5048-6-2"
       sodipodi:nodetypes="cscc" />
    <path
       style="display:inline;fill:#ef919b;fill-opacity:1;fill-rule:nonzero;stroke:none;stroke-width:0.0357143;stroke-linejoin:round;stroke-miterlimit:4;stroke-dasharray:none"
       d="m -79.16046,59.7007 c -4.29519,0.3558 -8.69514,1.90814 -11.628,5.18846 -2.72201,2.94224 -3.74016,7.08979 -3.59199,11.01654 -0.0574,4.17564 1.46739,8.50269 4.68576,11.27358 3.03295,2.63803 7.06218,3.90915 11.03033,4.12839 0,-10.55399 0,-21.10798 0,-31.66196 -0.16537,0.0183 -0.33073,0.0367 -0.4961,0.055 z"
       id="path5052-8-3" />
    <path
       style="display:inline;fill:none;stroke:#000000;stroke-width:2;stroke-linecap:butt;stroke-linejoin:miter;stroke-miterlimit:4;stroke-dasharray:none;stroke-opacity:1"
       d="m -79.16046,59.70071 c 0,0 -15.87499,0 -15.87499,15.875 0,15.875 15.87499,15.875 15.87499,15.875 v 0"
       id="path5048-6-8"
       sodipodi:nodetypes="cscc" />
    <rect
       style="display:inline;fill:#ef919b;fill-opacity:1;stroke:none;stroke-width:2;stroke-linejoin:round;stroke-miterlimit:4;stroke-dasharray:none"
       id="rect1724-5-3"
       width="52.916664"
       height="31.75"
       x="-26.805685"
       y="59.73864" />
    <path
       style="display:inline;fill:none;stroke:#000000;stroke-width:2;stroke-linecap:butt;stroke-linejoin:miter;stroke-miterlimit:4;stroke-dasharray:none;stroke-opacity:1"
       d="m -26.80572,59.73895 c 52.91667,0 52.91667,0 52.91667,0"
       id="path1716-48-8" />
    <path
       style="display:inline;fill:none;stroke:#000000;stroke-width:2;stroke-linecap:butt;stroke-linejoin:miter;stroke-miterlimit:4;stroke-dasharray:none;stroke-opacity:1"
       d="M -26.80572,91.48904 H 26.11095"
       id="path1720-4-1" />
    <rect
       style="display:inline;fill:#ef919b;fill-opacity:1;stroke:none;stroke-width:2;stroke-linejoin:round;stroke-miterlimit:4;stroke-dasharray:none"
       id="rect1724-5-6"
       width="52.916664"
       height="31.75"
       x="26.110941"
       y="59.738945" />
    <path
       style="display:inline;fill:none;stroke:#000000;stroke-width:2;stroke-linecap:butt;stroke-linejoin:miter;stroke-miterlimit:4;stroke-dasharray:none;stroke-opacity:1"
       d="m 26.11092,59.73927 c 52.91667,0 52.91667,0 52.91667,0"
       id="path1716-48-2" />
    <path
       style="display:inline;fill:none;stroke:#000000;stroke-width:2;stroke-linecap:butt;stroke-linejoin:miter;stroke-miterlimit:4;stroke-dasharray:none;stroke-opacity:1"
       d="M 26.11092,91.48936 H 79.02759"
       id="path1720-4-8" />
    <rect
       style="display:inline;fill:#ef919b;fill-opacity:1;stroke:none;stroke-width:2;stroke-linejoin:round;stroke-miterlimit:4;stroke-dasharray:none"
       id="rect1724-5-36"
       width="52.916664"
       height="31.75"
       x="76.910896"
       y="59.739677" />
    <path
       style="display:inline;fill:none;stroke:#000000;stroke-width:2;stroke-linecap:butt;stroke-linejoin:miter;stroke-miterlimit:4;stroke-dasharray:none;stroke-opacity:1"
       d="m 76.91091,59.73959 c 52.91667,0 52.91667,0 52.91667,0"
       id="path1716-48-81" />
    <path
       style="display:inline;fill:none;stroke:#000000;stroke-width:2;stroke-linecap:butt;stroke-linejoin:miter;stroke-miterlimit:4;stroke-dasharray:none;stroke-opacity:1"
       d="m 76.91091,91.48968 h 52.91667"
       id="path1720-4-3" />
    <rect
       style="display:inline;fill:#ef919b;fill-opacity:1;stroke:none;stroke-width:2;stroke-linejoin:round;stroke-miterlimit:4;stroke-dasharray:none"
       id="rect1724-5-5"
       width="52.916664"
       height="31.75"
       x="-79.722389"
       y="59.738945" />
    <path
       style="display:inline;fill:none;stroke:#000000;stroke-width:2;stroke-linecap:butt;stroke-linejoin:miter;stroke-miterlimit:4;stroke-dasharray:none;stroke-opacity:1"
       d="m -79.72241,59.73927 c 52.91667,0 52.91667,0 52.91667,0"
       id="path1716-48-1" />
    <path
       style="display:inline;fill:none;stroke:#000000;stroke-width:2;stroke-linecap:butt;stroke-linejoin:miter;stroke-miterlimit:4;stroke-dasharray:none;stroke-opacity:1"
       d="m -79.72241,91.48936 h 52.91667"
       id="path1720-4-6" />
    <path
       style="display:inline;fill:#f6f7b0;fill-opacity:1;fill-rule:nonzero;stroke:none;stroke-width:0.0357143;stroke-linejoin:round;stroke-miterlimit:4;stroke-dasharray:none"
       d="m -182.7288,59.7294 c -4.2952,0.3558 -8.69515,1.90814 -11.62801,5.18846 -2.72201,2.94224 -3.74016,7.08979 -3.59199,11.01654 -0.0574,4.17564 1.4674,8.50269 4.68576,11.27358 3.03295,2.63803 7.06218,3.90915 11.03033,4.12839 0,-10.55399 0,-21.10798 0,-31.66196 -0.16536,0.0183 -0.33073,0.0367 -0.49609,0.055 z"
       id="path5052-1-98" />
    <path
       style="display:inline;fill:none;stroke:#000000;stroke-width:2;stroke-linecap:butt;stroke-linejoin:miter;stroke-miterlimit:4;stroke-dasharray:none;stroke-opacity:1"
       d="m -182.72882,59.72943 c 0,0 -15.87499,0 -15.87499,15.875 0,15.87504 15.87499,15.87504 15.87499,15.87504 v 0"
       id="path5048-7-9-83"
       sodipodi:nodetypes="cscc" />
    <path
       style="display:inline;fill:#f6f7b0;fill-opacity:1;fill-rule:nonzero;stroke:none;stroke-width:0.0357143;stroke-linejoin:round;stroke-miterlimit:4;stroke-dasharray:none"
       d="m -130.87052,59.7294 c 4.2952,0.3558 8.69514,1.90814 11.62801,5.18846 2.72201,2.94224 3.74016,7.08979 3.59199,11.01654 0.0574,4.17564 -1.4674,8.50269 -4.68576,11.27358 -3.03295,2.63803 -7.06218,3.90915 -11.03033,4.12839 0,-10.55399 0,-21.10798 0,-31.66196 0.16536,0.0183 0.33073,0.0367 0.49609,0.055 z"
       id="path5052-1-98-6" />
    <path
       style="display:inline;fill:none;stroke:#000000;stroke-width:2;stroke-linecap:butt;stroke-linejoin:miter;stroke-miterlimit:4;stroke-dasharray:none;stroke-opacity:1"
       d="m -130.8705,59.72943 c 0,0 15.87499,0 15.87499,15.875 0,15.87504 -15.87499,15.87504 -15.87499,15.87504 v 0"
       id="path5048-7-9-83-9"
       sodipodi:nodetypes="cscc" />
    <rect
       style="fill:#f6f7b0;fill-opacity:1;stroke:none;stroke-width:2;stroke-linejoin:round;stroke-miterlimit:4;stroke-dasharray:none"
       id="rect1724-1-9-7"
       width="52.916664"
       height="31.75"
       x="-183.25798"
       y="59.729485" />
    <path
       style="display:inline;fill:none;stroke:#000000;stroke-width:2;stroke-linecap:butt;stroke-linejoin:miter;stroke-miterlimit:4;stroke-dasharray:none;stroke-opacity:1"
       d="m -183.258,59.73071 c 52.91666,0 52.91666,0 52.91666,0"
       id="path1716-0-8-9" />
    <path
       style="display:inline;fill:none;stroke:#000000;stroke-width:2;stroke-linecap:butt;stroke-linejoin:miter;stroke-miterlimit:4;stroke-dasharray:none;stroke-opacity:1"
       d="m -183.258,91.48065 h 52.91666"
       id="path1720-2-4-1" />
    <path
       style="display:inline;fill:#71bee7;fill-opacity:1;fill-rule:nonzero;stroke:none;stroke-width:0.0357143;stroke-linejoin:round;stroke-miterlimit:4;stroke-dasharray:none"
       d="m 233.68005,59.73068 c -4.2952,0.3558 -8.69515,1.90814 -11.62801,5.18846 -2.72201,2.94224 -3.74016,7.08979 -3.59199,11.01654 -0.0574,4.17564 1.4674,8.50269 4.68576,11.27358 3.03295,2.63803 7.06218,3.90915 11.03033,4.12839 0,-10.55399 0,-21.10798 0,-31.66196 -0.16536,0.0183 -0.33073,0.0367 -0.49609,0.055 z"
       id="path5052-1-98-3" />
    <path
       style="display:inline;fill:none;stroke:#000000;stroke-width:2;stroke-linecap:butt;stroke-linejoin:miter;stroke-miterlimit:4;stroke-dasharray:none;stroke-opacity:1"
       d="m 233.68003,59.73071 c 0,0 -15.87499,0 -15.87499,15.875 0,15.87504 15.87499,15.87504 15.87499,15.87504 v 0"
       id="path5048-7-9-83-3"
       sodipodi:nodetypes="cscc" />
    <path
       style="display:inline;fill:#71bee7;fill-opacity:1;fill-rule:nonzero;stroke:none;stroke-width:0.0357143;stroke-linejoin:round;stroke-miterlimit:4;stroke-dasharray:none"
       d="m 285.53833,59.73068 c 4.2952,0.3558 8.69514,1.90814 11.62801,5.18846 2.72201,2.94224 3.74016,7.08979 3.59199,11.01654 0.0574,4.17564 -1.4674,8.50269 -4.68576,11.27358 -3.03295,2.63803 -7.06218,3.90915 -11.03033,4.12839 0,-10.55399 0,-21.10798 0,-31.66196 0.16536,0.0183 0.33073,0.0367 0.49609,0.055 z"
       id="path5052-1-98-6-2" />
    <path
       style="display:inline;fill:none;stroke:#000000;stroke-width:2;stroke-linecap:butt;stroke-linejoin:miter;stroke-miterlimit:4;stroke-dasharray:none;stroke-opacity:1"
       d="m 285.53835,59.73071 c 0,0 15.87499,0 15.87499,15.875 0,15.87504 -15.87499,15.87504 -15.87499,15.87504 v 0"
       id="path5048-7-9-83-9-7"
       sodipodi:nodetypes="cscc" />
    <rect
       style="fill:#71bee7;fill-opacity:1;stroke:none;stroke-width:2;stroke-linejoin:round;stroke-miterlimit:4;stroke-dasharray:none"
       id="rect1724-1-9-7-5"
       width="52.916664"
       height="31.75"
       x="233.15089"
       y="59.730766" />
    <path
       style="display:inline;fill:none;stroke:#000000;stroke-width:2;stroke-linecap:butt;stroke-linejoin:miter;stroke-miterlimit:4;stroke-dasharray:none;stroke-opacity:1"
       d="m 233.15085,59.73199 c 52.91666,0 52.91666,0 52.91666,0"
       id="path1716-0-8-9-2" />
    <path
       style="display:inline;fill:none;stroke:#000000;stroke-width:2;stroke-linecap:butt;stroke-linejoin:miter;stroke-miterlimit:4;stroke-dasharray:none;stroke-opacity:1"
       d="m 233.15085,91.48193 h 52.91666"
       id="path1720-2-4-1-9" />
    <rect
       style="display:inline;fill:#ef919b;fill-opacity:1;stroke:none;stroke-width:2;stroke-linejoin:round;stroke-miterlimit:4;stroke-dasharray:none"
       id="rect1724-5-36-6"
       width="52.916664"
       height="31.75"
       x="129.29836"
       y="59.739754" />
    <path
       style="display:inline;fill:none;stroke:#000000;stroke-width:2;stroke-linecap:butt;stroke-linejoin:miter;stroke-miterlimit:4;stroke-dasharray:none;stroke-opacity:1"
       d="m 129.29838,59.73968 c 52.91667,0 52.91667,0 52.91667,0"
       id="path1716-48-81-0" />
    <path
       style="display:inline;fill:none;stroke:#000000;stroke-width:2;stroke-linecap:butt;stroke-linejoin:miter;stroke-miterlimit:4;stroke-dasharray:none;stroke-opacity:1"
       d="m 129.29838,91.48977 h 52.91667"
       id="path1720-4-3-1" />
    <rect
       style="fill:none;stroke:#000000;stroke-width:1;stroke-miterlimit:4;stroke-dasharray:none;stroke-opacity:1;paint-order:fill markers stroke"
       id="rect5260"
       width="4.0687962"
       height="24.068796"
       x="-159.63821"
       y="63.666309" />
    <path
       style="fill:#f6f7b0;fill-opacity:1;stroke:none;stroke-width:0.264583px;stroke-linecap:butt;stroke-linejoin:miter;stroke-opacity:1"
       d="m -159.13673,66.437408 v 1.889881 l 3.05924,0.0945 0.0118,-2.256045 z"
       id="path5262"
       sodipodi:nodetypes="ccccc" />
    <path
       style="fill:#f6f7b0;fill-opacity:1;stroke:none;stroke-width:0.264583px;stroke-linecap:butt;stroke-linejoin:miter;stroke-opacity:1"
       d="m -159.13673,85.336217 3.04743,0.02363 0.0354,-2.267858 -3.09468,-0.212611 z"
       id="path5266"
       sodipodi:nodetypes="ccccc" />
    <rect
       style="fill:none;stroke:#000000;stroke-width:1;stroke-miterlimit:4;stroke-dasharray:none;stroke-opacity:1;paint-order:fill markers stroke"
       id="rect5260-0"
       width="4.0687962"
       height="24.068796"
       x="-159.63823"
       y="63.666309" />
    <rect
       style="fill:none;stroke:#000000;stroke-width:1;stroke-miterlimit:4;stroke-dasharray:none;stroke-opacity:1;paint-order:fill markers stroke"
       id="rect5260-0-3"
       width="4.0687962"
       height="24.068796"
       x="-77.735115"
       y="-169.63823"
       transform="rotate(-90)" />
    <rect
       style="fill:none;stroke:#000000;stroke-width:1;stroke-miterlimit:4;stroke-dasharray:none;stroke-opacity:1;paint-order:fill markers stroke"
       id="rect5260-0-3-8"
       width="4.0687962"
       height="24.068796"
       x="-166.80356"
       y="-70.52108"
       transform="rotate(-45.19893)" />
    <rect
       style="fill:none;stroke:#000000;stroke-width:1;stroke-miterlimit:4;stroke-dasharray:none;stroke-opacity:1;paint-order:fill markers stroke"
       id="rect5260-0-3-9"
       width="4.0687962"
       height="24.068796"
       x="54.379192"
       y="-177.5248"
       transform="rotate(-134.47963)" />
    <ellipse
       style="fill:#f6f7b0;stroke:#000000;stroke-width:1;stroke-miterlimit:4;stroke-dasharray:none;stroke-opacity:1;paint-order:fill markers stroke;fill-opacity:1"
       id="path5236-4"
       cx="-157.60381"
       cy="75.700706"
       rx="8.5714293"
       ry="8.5714283" />
    <ellipse
       style="fill:#f6f7b0;stroke:#000000;stroke-width:1;stroke-miterlimit:4;stroke-dasharray:none;stroke-opacity:1;paint-order:fill markers stroke;fill-opacity:1"
       id="path5236"
       cx="-157.60381"
       cy="75.700706"
       rx="3.6363635"
       ry="3.6363637" />
    <path
       style="fill:#f6f7b0;fill-opacity:1;stroke:none;stroke-width:0.264583px;stroke-linecap:butt;stroke-linejoin:miter;stroke-opacity:1"
       d="m -159.13673,66.437408 v 1.889881 l 3.05924,0.0945 0.0118,-2.256045 z"
       id="path5262-8"
       sodipodi:nodetypes="ccccc" />
    <path
       style="fill:#f6f7b0;fill-opacity:1;stroke:none;stroke-width:0.264583px;stroke-linecap:butt;stroke-linejoin:miter;stroke-opacity:1"
       d="m -159.13673,85.336217 3.04743,0.02363 0.0354,-2.267858 -3.09468,-0.212611 z"
       id="path5266-7"
       sodipodi:nodetypes="ccccc" />
    <path
       style="fill:#f6f7b0;fill-opacity:1;stroke:none;stroke-width:0.264583px;stroke-linecap:butt;stroke-linejoin:miter;stroke-opacity:1"
       d="m -150.05325,77.238849 h 1.88988 l 0.0945,-3.05924 -2.25604,-0.0118 z"
       id="path5262-8-3"
       sodipodi:nodetypes="ccccc" />
    <path
       style="fill:#f6f7b0;fill-opacity:1;stroke:none;stroke-width:0.264583px;stroke-linecap:butt;stroke-linejoin:miter;stroke-opacity:1"
       d="m -164.8061,77.238759 0.0236,-3.04743 -2.26785,-0.0354 -0.21261,3.09468 z"
       id="path5266-7-2"
       sodipodi:nodetypes="ccccc" />
    <path
       style="fill:#f6f7b0;fill-opacity:1;stroke:none;stroke-width:0.264583px;stroke-linecap:butt;stroke-linejoin:miter;stroke-opacity:1"
       d="m -153.3301,82.112609 1.34098,1.331699 2.22274,-2.104118 -1.59248,-1.598085 z"
       id="path5262-8-3-7"
       sodipodi:nodetypes="ccccc" />
    <path
       style="fill:#f6f7b0;fill-opacity:1;stroke:none;stroke-width:0.264583px;stroke-linecap:butt;stroke-linejoin:miter;stroke-opacity:1"
       d="m -163.79804,71.716982 2.16411,-2.145697 -1.58423,-1.623153 -2.33151,2.046038 z"
       id="path5266-7-2-4"
       sodipodi:nodetypes="ccccc" />
    <path
       style="fill:#f6f7b0;fill-opacity:1;stroke:none;stroke-width:0.264583px;stroke-linecap:butt;stroke-linejoin:miter;stroke-opacity:1"
       d="m -151.13879,71.507812 1.34843,-1.324156 -2.07605,-2.248978 -1.61795,1.572288 z"
       id="path5262-8-3-2"
       sodipodi:nodetypes="ccccc" />
    <path
       style="fill:#f6f7b0;fill-opacity:1;stroke:none;stroke-width:0.264583px;stroke-linecap:butt;stroke-linejoin:miter;stroke-opacity:1"
       d="m -161.66501,81.84442 -2.11836,-2.190876 -1.64291,1.563724 2.01661,2.357019 z"
       id="path5266-7-2-8"
       sodipodi:nodetypes="ccccc" />
    <path
       style="fill:none;stroke:#000000;stroke-width:1;stroke-linecap:butt;stroke-linejoin:miter;stroke-miterlimit:4;stroke-dasharray:none;stroke-opacity:1"
       d="m 248.43025,84.176304 h 22.54628 V 63.897881 h 5.66965"
       id="path5420"
       sodipodi:nodetypes="cccc" />
    <rect
       style="fill:none;fill-opacity:1;stroke:#000000;stroke-width:1;stroke-miterlimit:4;stroke-dasharray:none;stroke-opacity:1;paint-order:fill markers stroke"
       id="rect5422"
       width="29.765606"
       height="14.835565"
       x="241.21091"
       y="66.014549" />
    <circle
       style="fill:none;fill-opacity:1;stroke:#000000;stroke-width:1;stroke-miterlimit:4;stroke-dasharray:none;stroke-opacity:1;paint-order:fill markers stroke"
       id="path5424"
       cx="250.7737"
       cy="86.368561"
       r="2" />
    <circle
       style="fill:none;fill-opacity:1;stroke:#000000;stroke-width:1;stroke-miterlimit:4;stroke-dasharray:none;stroke-opacity:1;paint-order:fill markers stroke"
       id="path5424-5"
       cx="267.95273"
       cy="86.292969"
       r="2" />
    <path
       style="fill:none;stroke:#000000;stroke-width:1;stroke-linecap:butt;stroke-linejoin:miter;stroke-opacity:1;stroke-miterlimit:4;stroke-dasharray:none"
       d="M 245.27417,65.97675 V 81.001303"
       id="path5448" />
    <path
       style="fill:none;stroke:#000000;stroke-width:1;stroke-linecap:butt;stroke-linejoin:miter;stroke-miterlimit:4;stroke-dasharray:none;stroke-opacity:1"
       d="M 249.50753,65.97675 V 81.001303"
       id="path5448-9" />
    <path
       style="fill:none;stroke:#000000;stroke-width:1;stroke-linecap:butt;stroke-linejoin:miter;stroke-miterlimit:4;stroke-dasharray:none;stroke-opacity:1"
       d="M 253.74089,65.97675 V 81.001303"
       id="path5448-4" />
    <path
       style="fill:none;stroke:#000000;stroke-width:1;stroke-linecap:butt;stroke-linejoin:miter;stroke-miterlimit:4;stroke-dasharray:none;stroke-opacity:1"
       d="M 257.97425,65.97675 V 81.001303"
       id="path5448-9-1" />
    <path
       style="fill:none;stroke:#000000;stroke-width:1;stroke-linecap:butt;stroke-linejoin:miter;stroke-miterlimit:4;stroke-dasharray:none;stroke-opacity:1"
       d="M 262.20761,65.97675 V 81.001303"
       id="path5448-97" />
    <path
       style="fill:none;stroke:#000000;stroke-width:1;stroke-linecap:butt;stroke-linejoin:miter;stroke-miterlimit:4;stroke-dasharray:none;stroke-opacity:1"
       d="M 266.44097,65.97675 V 81.001303"
       id="path5448-9-4" />
    <path
       style="fill:none;stroke:#000000;stroke-width:1;stroke-linecap:butt;stroke-linejoin:miter;stroke-miterlimit:4;stroke-dasharray:none;stroke-opacity:1"
       d="m 241.21091,69.662017 h 29.57663"
       id="path5508" />
    <path
       style="fill:none;stroke:#000000;stroke-width:1;stroke-linecap:butt;stroke-linejoin:miter;stroke-miterlimit:4;stroke-dasharray:none;stroke-opacity:1"
       d="m 241.21091,73.366186 h 29.57663"
       id="path5508-3" />
    <path
       style="fill:none;stroke:#000000;stroke-width:1;stroke-linecap:butt;stroke-linejoin:miter;stroke-miterlimit:4;stroke-dasharray:none;stroke-opacity:1"
       d="m 241.21091,77.070355 h 29.57663"
       id="path5508-6" />
    <text
       xml:space="preserve"
       style="font-style:normal;font-weight:normal;font-size:30px;line-height:1.25;font-family:sans-serif;letter-spacing:26.4583px;fill:#000000;fill-opacity:1;stroke:#000000;stroke-width:3;stroke-miterlimit:4;stroke-dasharray:none;stroke-opacity:1"
       x="-25.533497"
       y="86.51223"
       id="text5545"><tspan
         sodipodi:role="line"
         id="tspan5543"
         x="-25.533497"
         y="86.51223"
         style="font-size:30px;stroke:#000000;stroke-width:3;stroke-miterlimit:4;stroke-dasharray:none;stroke-opacity:1">PLAY</tspan></text>
  </g>
</svg>
